{
	"asset":{
		"version":"2.0",
		"generator":"Created using the official Cinema 4D glTF Exporter 1.000x284978"
	},
	"scenes":[{
		"nodes":[0]
	}],
	"accessors":[{
		"bufferView":0,
		"type":"SCALAR",
		"componentType":5123,
		"count":54552,
		"byteOffset":0,
		"min":[0],
		"max":[19115]
	},
	{
		"bufferView":1,
		"type":"VEC3",
		"componentType":5126,
		"count":19116,
		"byteOffset":0,
		"min":[-21.84217643737793,
		-25.0,
		-3.30592942237854],
		"max":[44.75444030761719,
		1.1321432680233556e-10,
		49.24848175048828]
	},
	{
		"bufferView":1,
		"type":"VEC3",
		"componentType":5126,
		"count":19116,
		"byteOffset":12,
		"min":[-0.9999993443489075,
		-1.0,
		-0.9998043775558472],
		"max":[0.9952579140663147,
		1.0,
		0.9997987747192383]
	},
	{
		"bufferView":1,
		"type":"VEC2",
		"componentType":5126,
		"count":19116,
		"byteOffset":24,
		"min":[0.0,
		0.0],
		"max":[1.0,
		1.0]
	},
	{
		"bufferView":2,
		"type":"SCALAR",
		"componentType":5123,
		"count":480,
		"byteOffset":0,
		"min":[0],
		"max":[118]
	},
	{
		"bufferView":3,
		"type":"VEC3",
		"componentType":5126,
		"count":119,
		"byteOffset":0,
		"min":[-10.0,
		0.0,
		27.0679988861084],
		"max":[10.0,
		15.0,
		47.067996978759769]
	},
	{
		"bufferView":3,
		"type":"VEC3",
		"componentType":5126,
		"count":119,
		"byteOffset":12,
		"min":[-1.0,
		-1.0,
		-1.0],
		"max":[1.0,
		1.0,
		1.0]
	},
	{
		"bufferView":3,
		"type":"VEC2",
		"componentType":5126,
		"count":119,
		"byteOffset":24,
		"min":[0.0,
		0.0],
		"max":[1.0,
		1.0]
	},
	{
		"bufferView":4,
		"type":"SCALAR",
		"componentType":5123,
		"count":480,
		"byteOffset":0,
		"min":[0],
		"max":[118]
	},
	{
		"bufferView":5,
		"type":"VEC3",
		"componentType":5126,
		"count":119,
		"byteOffset":0,
		"min":[-10.0,
		0.0,
		27.0679988861084],
		"max":[10.0,
		15.0,
		47.067996978759769]
	},
	{
		"bufferView":5,
		"type":"VEC3",
		"componentType":5126,
		"count":119,
		"byteOffset":12,
		"min":[-1.0,
		-1.0,
		-1.0],
		"max":[1.0,
		1.0,
		1.0]
	},
	{
		"bufferView":5,
		"type":"VEC2",
		"componentType":5126,
		"count":119,
		"byteOffset":24,
		"min":[0.0,
		0.0],
		"max":[1.0,
		1.0]
	},
	{
		"bufferView":6,
		"type":"SCALAR",
		"componentType":5123,
		"count":480,
		"byteOffset":0,
		"min":[0],
		"max":[118]
	},
	{
		"bufferView":7,
		"type":"VEC3",
		"componentType":5126,
		"count":119,
		"byteOffset":0,
		"min":[-10.0,
		0.0,
		27.0679988861084],
		"max":[10.0,
		15.0,
		47.067996978759769]
	},
	{
		"bufferView":7,
		"type":"VEC3",
		"componentType":5126,
		"count":119,
		"byteOffset":12,
		"min":[-1.0,
		-1.0,
		-1.0],
		"max":[1.0,
		1.0,
		1.0]
	},
	{
		"bufferView":7,
		"type":"VEC2",
		"componentType":5126,
		"count":119,
		"byteOffset":24,
		"min":[0.0,
		0.0],
		"max":[1.0,
		1.0]
	},
	{
		"bufferView":8,
		"type":"SCALAR",
		"componentType":5123,
		"count":480,
		"byteOffset":0,
		"min":[0],
		"max":[118]
	},
	{
		"bufferView":9,
		"type":"VEC3",
		"componentType":5126,
		"count":119,
		"byteOffset":0,
		"min":[-10.0,
		0.0,
		27.0679988861084],
		"max":[10.0,
		15.0,
		47.067996978759769]
	},
	{
		"bufferView":9,
		"type":"VEC3",
		"componentType":5126,
		"count":119,
		"byteOffset":12,
		"min":[-1.0,
		-1.0,
		-1.0],
		"max":[1.0,
		1.0,
		1.0]
	},
	{
		"bufferView":9,
		"type":"VEC2",
		"componentType":5126,
		"count":119,
		"byteOffset":24,
		"min":[0.0,
		0.0],
		"max":[1.0,
		1.0]
	},
	{
		"bufferView":10,
		"type":"SCALAR",
		"componentType":5123,
		"count":480,
		"byteOffset":0,
		"min":[0],
		"max":[118]
	},
	{
		"bufferView":11,
		"type":"VEC3",
		"componentType":5126,
		"count":119,
		"byteOffset":0,
		"min":[-10.0,
		0.0,
		27.0679988861084],
		"max":[10.0,
		15.0,
		47.067996978759769]
	},
	{
		"bufferView":11,
		"type":"VEC3",
		"componentType":5126,
		"count":119,
		"byteOffset":12,
		"min":[-1.0,
		-1.0,
		-1.0],
		"max":[1.0,
		1.0,
		1.0]
	},
	{
		"bufferView":11,
		"type":"VEC2",
		"componentType":5126,
		"count":119,
		"byteOffset":24,
		"min":[0.0,
		0.0],
		"max":[1.0,
		1.0]
	},
	{
		"bufferView":12,
		"type":"SCALAR",
		"componentType":5123,
		"count":480,
		"byteOffset":0,
		"min":[0],
		"max":[118]
	},
	{
		"bufferView":13,
		"type":"VEC3",
		"componentType":5126,
		"count":119,
		"byteOffset":0,
		"min":[-10.0,
		0.0,
		27.0679988861084],
		"max":[10.0,
		15.0,
		47.067996978759769]
	},
	{
		"bufferView":13,
		"type":"VEC3",
		"componentType":5126,
		"count":119,
		"byteOffset":12,
		"min":[-1.0,
		-1.0,
		-1.0],
		"max":[1.0,
		1.0,
		1.0]
	},
	{
		"bufferView":13,
		"type":"VEC2",
		"componentType":5126,
		"count":119,
		"byteOffset":24,
		"min":[0.0,
		0.0],
		"max":[1.0,
		1.0]
	},
	{
		"bufferView":14,
		"type":"SCALAR",
		"componentType":5123,
		"count":76116,
		"byteOffset":0,
		"min":[0],
		"max":[26887]
	},
	{
		"bufferView":15,
		"type":"VEC3",
		"componentType":5126,
		"count":26888,
		"byteOffset":0,
		"min":[-49.5,
		-59.78256607055664,
		-49.5],
		"max":[49.5,
		64.7825698852539,
		49.5]
	},
	{
		"bufferView":15,
		"type":"VEC3",
		"componentType":5126,
		"count":26888,
		"byteOffset":12,
		"min":[-1.0,
		-1.0,
		-1.0],
		"max":[1.0,
		1.0,
		1.0]
	},
	{
		"bufferView":15,
		"type":"VEC2",
		"componentType":5126,
		"count":26888,
		"byteOffset":24,
		"min":[0.0,
		0.0],
		"max":[1.0,
		1.0]
	}],
	"nodes":[{
		"name":"ТОРТ С КУПОЛОМ И С ЛЕСТНИЦЕЙ",
		"translation":[-1.7763568394002506e-15,
		34.4694938659668,
		-0.0000029403715871012538],
		"rotation":[0.0,
		0.0,
		0.0,
		-1.0],
		"scale":[1.0,
		1.0,
		1.0],
		"children":[1,
		3,
		10]
	},
	{
		"name":"ЛЕСТНИЦА",
		"translation":[8.881784197001253e-15,
		-34.4694938659668,
		12.494142532348633],
		"rotation":[0.0,
		0.0,
		0.0,
		-1.0],
		"scale":[1.0,
		1.0,
		1.0],
		"children":[2]
	},
	{
		"name":"ЛЕСТНИЦА",
		"translation":[-1.7763568394002506e-14,
		32.18379211425781,
		-12.494138717651368],
		"rotation":[0.0,
		-0.21723507344722749,
		0.0,
		0.976119339466095],
		"mesh":0,
		"scale":[1.0,
		1.0,
		1.0]
	},
	{
		"name":"Ноль",
		"translation":[5.3290705182007517e-15,
		-27.39128303527832,
		-0.0000029403715871012538],
		"rotation":[0.0,
		0.0,
		0.0,
		-1.0],
		"scale":[1.0,
		1.0,
		1.0],
		"children":[4,
		5,
		6,
		7,
		8,
		9]
	},
	{
		"name":"Цилиндр.5",
		"translation":[3.529303862747755e-22,
		0.0,
		0.0],
		"rotation":[0.0,
		-0.9238795042037964,
		0.0,
		0.3826834261417389],
		"mesh":1,
		"scale":[1.0,
		1.0,
		1.0]
	},
	{
		"name":"Цилиндр.4",
		"translation":[-7.058608104148744e-23,
		0.0,
		8.470329472543004e-22],
		"rotation":[0.0,
		-0.9238795042037964,
		0.0,
		-0.3826834261417389],
		"mesh":2,
		"scale":[1.0,
		1.0,
		1.0]
	},
	{
		"name":"Цилиндр.1",
		"translation":[-7.058608104148744e-23,
		0.0,
		0.0],
		"rotation":[0.0,
		-0.7071067690849304,
		0.0,
		-0.7071067690849304],
		"mesh":3,
		"scale":[1.0,
		1.0,
		1.0]
	},
	{
		"name":"Цилиндр.3",
		"translation":[-7.058608104148744e-23,
		0.0,
		0.0],
		"rotation":[0.0,
		-1.0,
		0.0,
		-6.123234262925839e-17],
		"mesh":4,
		"scale":[1.0,
		1.0,
		1.0]
	},
	{
		"name":"Цилиндр.2",
		"translation":[-7.058608104148744e-23,
		0.0,
		0.0],
		"rotation":[0.0,
		-0.7071067690849304,
		0.0,
		0.7071067690849304],
		"mesh":5,
		"scale":[1.0,
		1.0,
		1.0]
	},
	{
		"name":"Цилиндр",
		"mesh":6
	},
	{
		"name":"торт с куполом",
		"translation":[-5.3290705182007517e-15,
		27.39128303527832,
		0.0000029403715871012538],
		"rotation":[0.0,
		0.0,
		0.0,
		-1.0],
		"mesh":7,
		"scale":[1.0,
		1.0,
		1.0]
	}],
	"materials":[{
		"pbrMetallicRoughness":{
			"baseColorFactor":[0.8,
			0.8,
			0.8,
			1.0],
			"metallicFactor":0.0,
			"roughnessFactor":0.5
		},
		"emissiveFactor":[0.0,
		0.0,
		0.0],
		"alphaMode":"OPAQUE",
		"doubleSided":true,
		"name":"Материал"
	}],
	"meshes":[{
		"name":"ЛЕСТНИЦА",
		"primitives":[{
			"attributes":{
				"POSITION":1,
				"NORMAL":2,
				"TEXCOORD_0":3
			},
			"indices":0,
			"material":0
		}]
	},
	{
		"name":"Цилиндр.5",
		"primitives":[{
			"attributes":{
				"POSITION":5,
				"NORMAL":6,
				"TEXCOORD_0":7
			},
			"indices":4,
			"material":0
		}]
	},
	{
		"name":"Цилиндр.4",
		"primitives":[{
			"attributes":{
				"POSITION":9,
				"NORMAL":10,
				"TEXCOORD_0":11
			},
			"indices":8,
			"material":0
		}]
	},
	{
		"name":"Цилиндр.1",
		"primitives":[{
			"attributes":{
				"POSITION":13,
				"NORMAL":14,
				"TEXCOORD_0":15
			},
			"indices":12,
			"material":0
		}]
	},
	{
		"name":"Цилиндр.3",
		"primitives":[{
			"attributes":{
				"POSITION":17,
				"NORMAL":18,
				"TEXCOORD_0":19
			},
			"indices":16,
			"material":0
		}]
	},
	{
		"name":"Цилиндр.2",
		"primitives":[{
			"attributes":{
				"POSITION":21,
				"NORMAL":22,
				"TEXCOORD_0":23
			},
			"indices":20,
			"material":0
		}]
	},
	{
		"name":"Цилиндр",
		"primitives":[{
			"attributes":{
				"POSITION":25,
				"NORMAL":26,
				"TEXCOORD_0":27
			},
			"indices":24,
			"material":0
		}]
	},
	{
		"name":"торт с куполом",
		"primitives":[{
			"attributes":{
				"POSITION":29,
				"NORMAL":30,
				"TEXCOORD_0":31
			},
			"indices":28,
			"material":0
		}]
	}],
	"bufferViews":[{
		"buffer":0,
		"byteOffset":0,
		"byteLength":109104,
		"target":34963
	},
	{
		"buffer":0,
		"byteOffset":109104,
		"byteLength":611712,
		"target":34962,
		"byteStride":32
	},
	{
		"buffer":1,
		"byteOffset":0,
		"byteLength":960,
		"target":34963
	},
	{
		"buffer":1,
		"byteOffset":960,
		"byteLength":3808,
		"target":34962,
		"byteStride":32
	},
	{
		"buffer":2,
		"byteOffset":0,
		"byteLength":960,
		"target":34963
	},
	{
		"buffer":2,
		"byteOffset":960,
		"byteLength":3808,
		"target":34962,
		"byteStride":32
	},
	{
		"buffer":3,
		"byteOffset":0,
		"byteLength":960,
		"target":34963
	},
	{
		"buffer":3,
		"byteOffset":960,
		"byteLength":3808,
		"target":34962,
		"byteStride":32
	},
	{
		"buffer":4,
		"byteOffset":0,
		"byteLength":960,
		"target":34963
	},
	{
		"buffer":4,
		"byteOffset":960,
		"byteLength":3808,
		"target":34962,
		"byteStride":32
	},
	{
		"buffer":5,
		"byteOffset":0,
		"byteLength":960,
		"target":34963
	},
	{
		"buffer":5,
		"byteOffset":960,
		"byteLength":3808,
		"target":34962,
		"byteStride":32
	},
	{
		"buffer":6,
		"byteOffset":0,
		"byteLength":960,
		"target":34963
	},
	{
		"buffer":6,
		"byteOffset":960,
		"byteLength":3808,
		"target":34962,
		"byteStride":32
	},
	{
		"buffer":7,
		"byteOffset":0,
		"byteLength":152232,
		"target":34963
	},
	{
		"buffer":7,
		"byteOffset":152232,
		"byteLength":860416,
		"target":34962,
		"byteStride":32
	}],
	"buffers":[{
		"uri":"data:application/octet-stream;base64,",
		"byteLength":720816
	},
	{
		"uri":"data:application/octet-stream;base64,",
		"byteLength":4768
	},
	{
		"uri":"data:application/octet-stream;base64,",
		"byteLength":4768
	},
	{
		"uri":"data:application/octet-stream;base64,",
		"byteLength":4768
	},
	{
		"uri":"data:application/octet-stream;base64,",
		"byteLength":4768
	},
	{
		"uri":"data:application/octet-stream;base64,",
		"byteLength":4768
	},
	{
		"uri":"data:application/octet-stream;base64,",
		"byteLength":4768
	},
	{
		"uri":"data:application/octet-stream;base64,",
		"byteLength":1012648
	}]
}